<svg xmlns="http://www.w3.org/2000/svg" viewBox="0 0 61.69 68.44">
  <defs>
    <linearGradient id="abbf8382c-7b05-431e-9572-4cd5305488de" y1="34.22" x2="61.69" y2="34.22"
      gradientUnits="userSpaceOnUse">
      <stop offset="0" stop-color="#278cff" />
      <stop offset=".49" stop-color="#abdcff" />
      <stop offset=".99" stop-color="#075cfa" />
    </linearGradient>
  </defs>
  <path
    d="M.16 43.64a39.5 39.5 0 0 0 0-5.22c-.57-4.18 1-7.43 3.52-10.67 6.47-8.29 12.67-16.8 19-25.23 2.52-3.36 4-3.36 6.57 0C33 7.61 36.84 12.66 40.59 17.78a2.21 2.21 0 0 0 3 .9c4.95-1.91 9.92-3.74 14.88-5.58 2.21-.82 2.83-.5 3 1.79.45 6.62.11 13.24.19 19.87a4 4 0 0 1-1 2.45q-11 14.73-22.07 29.45c-1.8 2.4-3.72 2.36-5.57-.08C29 61.37 25 56.14 21.16 50.86a2.44 2.44 0 0 0-3.37-.92c-4.73 1.87-9.51 3.63-14.28 5.39-2.63 1-3.32.47-3.35-2.27-.02-3.14 0-6.28 0-9.42zm35.64 3.13c1.33 0 5.57-4.8 5.42-6.15a2.05 2.05 0 0 0-.46-.92C36.53 34.08 32.32 28.45 28 22.88a2.56 2.56 0 0 0-4.27 0c-.89 1.07-1.63 2.27-2.53 3.33s-.79 2.05.05 3.14c4.06 5.32 8.07 10.66 12.1 16a3 3 0 0 0 2.45 1.42z"
    fill="url(#abbf8382c-7b05-431e-9572-4cd5305488de)" />
</svg>