<svg xmlns="http://www.w3.org/2000/svg" xmlns:xlink="http://www.w3.org/1999/xlink" width="24" height="24" viewBox="0 0 24 24"><defs><style>.a{opacity:0.8;}.b{fill:#fff;}.c{fill:url(#a);}</style><linearGradient id="a" x1="0.5" x2="0.5" y2="1" gradientUnits="objectBoundingBox"><stop offset="0" stop-color="#5b9cff"/><stop offset="1" stop-color="#b1d0ff"/></linearGradient></defs><g class="a"><path class="b" d="M0,12A12,12,0,1,0,12,0,12,12,0,0,0,0,12Z"/><path class="c" d="M22.2,20.2c-.321-1.684-3.279-3.293-5.933-4.172-.13-.043-.938-.406-.432-1.941A8.533,8.533,0,0,0,18.157,8.4c0-3.3-2.2-5.034-4.755-5.034S8.653,5.1,8.653,8.4a8.538,8.538,0,0,0,2.328,5.7c.517,1.353-.406,1.857-.6,1.924-2.525.91-5.458,2.525-5.782,4.172a12,12,0,1,1,17.6,0" transform="translate(-1.397 -0.088)"/></g></svg>